<svg xmlns="http://www.w3.org/2000/svg" viewBox="0 0 400 400" role="img" aria-labelledby="title desc">
  <title>Profile avatar illustration</title>
  <desc>Portrait illustration of DualBorn smiling in a blue shirt</desc>
  <defs>
    <linearGradient id="bg" x1="0" x2="1" y1="0" y2="1">
      <stop offset="0%" stop-color="#dcecf5" />
      <stop offset="100%" stop-color="#f7e7dc" />
    </linearGradient>
  </defs>
  <rect width="400" height="400" rx="48" fill="url(#bg)" />
  <circle cx="200" cy="150" r="72" fill="#f4c7a1" />
  <path d="M120 108c18-42 52-60 82-60 40 0 71 20 88 60-19-11-37-16-56-16-39 0-75 14-114 16z" fill="#1b3551" />
  <path d="M140 178c18 12 38 18 60 18 22 0 42-6 60-18" fill="none" stroke="#bf6a3b" stroke-linecap="round" stroke-width="10" />
  <circle cx="170" cy="148" r="8" fill="#1b3551" />
  <circle cx="230" cy="148" r="8" fill="#1b3551" />
  <path d="M126 302c20-54 64-84 74-84 10 0 54 30 74 84" fill="#145e75" />
  <path d="M150 314c20-28 40-42 50-42 10 0 30 14 50 42" fill="#0f4f62" />
</svg>
